<svg id="Group_9308" data-name="Group 9308" xmlns="http://www.w3.org/2000/svg" xmlns:xlink="http://www.w3.org/1999/xlink" width="270" height="88" viewBox="0 0 270 88">
  <defs>
    <clipPath id="clip-path">
      <path id="Path_30823" data-name="Path 30823" d="M47.167,66.034q-.39.9-.774,1.8c-.089.211-.009.318.217.32s.476,0,.714,0h0c.249,0,.5,0,.746,0s.31-.133.215-.349q-.385-.882-.773-1.762c-.034-.077-.077-.153-.173-.158H47.33c-.1,0-.131.083-.163.155m20.809-1.8c.7-.007.552-.013.557.84.01,1.676,0,3.353,0,5.028,0,.393-.015.405-.4.408-.725.007-.725.007-.724-.717V67.376H67.4c0-.972,0-1.945,0-2.918,0-.143.039-.217.185-.219l.062,0h.335M34.618,66.47c-.009-.631.005-1.263-.007-1.893-.005-.257.09-.349.344-.343.124,0,.23,0,.321,0,.619,0,.5,0,.51.811.008.787,0,1.573,0,2.36,0,.921-.009,1.842,0,2.764,0,.293-.092.406-.392.4-.9-.018-.778.08-.785-.778,0-.507-.007-1.014,0-1.522,0-.249-.1-.364-.349-.363q-1.179,0-2.359,0c-.271,0-.358.133-.355.39.01.641,0,1.283.007,1.925.005.257-.094.351-.346.346-.121,0-.226,0-.315,0-.631,0-.508,0-.512-.814-.008-1.687,0-3.374,0-5.061,0-.455,0-.459.441-.456h.224c.592-.005.5-.011.506.724,0,.5.01.994,0,1.49-.006.271.083.4.374.4.776-.01,1.552-.008,2.328,0h.009c.264,0,.355-.12.352-.377m6.618,2.914a1.55,1.55,0,0,0,.822-1.611c.015-1.075.011-2.152,0-3.227,0-.232.061-.324.293-.311.207.012.414.006.621,0,.187,0,.242.081.237.27-.013.641,0,1.283,0,1.924h-.014c0,.6.008,1.2,0,1.8a2.207,2.207,0,0,1-1.722,2.259A2.952,2.952,0,0,1,38.5,69.9a2.29,2.29,0,0,1-.654-1.57c-.024-1.251,0-2.5-.014-3.755,0-.258.1-.348.348-.343.126,0,.233,0,.324,0,.619,0,.494,0,.5.811.01.983.014,1.967,0,2.949A1.457,1.457,0,0,0,40.5,69.54a1.828,1.828,0,0,0,.731-.156m19.788.778c.011-.931,0-1.864,0-2.8,0-.911.008-1.823-.005-2.734,0-.287.074-.4.383-.4,1.284.014,2.568.011,3.851,0,.264,0,.373.08.368.355-.013.715.045.709-.484.7h-.216c-.777,0-1.554.008-2.33,0-.3-.005-.417.108-.4.4.013.2,0,.393,0,.59,0,.418.031.447.436.449.539,0,1.078.008,1.616,0,.249,0,.377.064.32.34a1.365,1.365,0,0,0-.007.31c.014.4.014.4-.372.4-.539,0-1.078.01-1.616,0-.285-.007-.392.111-.38.389.013.3,0,.6,0,.9,0,.395.058.453.448.455.881,0,1.76,0,2.641,0,.447,0,.452.007.455.449a1.328,1.328,0,0,0,0,.155c.034.29-.077.4-.383.4-1.325-.014-2.651-.011-3.976,0H61.38c-.263,0-.361-.088-.357-.358m-7.781-1.876c.414-1.257.833-2.514,1.241-3.773a.336.336,0,0,1,.349-.277c.685-.03.7-.041.92.6.39,1.135.762,2.276,1.143,3.413.031.092.023.233.167.224.125-.008.139-.131.171-.23.4-1.243.8-2.483,1.194-3.725a.338.338,0,0,1,.382-.28c.206.011.414.008.621,0,.232-.007.287.073.207.3-.468,1.328-.925,2.659-1.385,3.989-.189.547-.388,1.093-.565,1.645a.42.42,0,0,1-.47.343c-.784-.022-.628.089-.875-.623-.379-1.094-.788-2.179-1.121-3.288-.024-.082-.06-.165-.16-.166-.139,0-.149.123-.182.217-.4,1.154-.809,2.305-1.19,3.466a.483.483,0,0,1-.553.4c-.595-.02-.592-.005-.784-.556q-.928-2.651-1.86-5.3a1.611,1.611,0,0,0-.058-.177c-.1-.21,0-.254.187-.247.124,0,.248,0,.372,0a1.6,1.6,0,0,0,.249,0c.3-.048.421.117.5.376.381,1.225.77,2.447,1.156,3.67.028.088.054.19.171.191s.142-.1.172-.19m-9.088,2.233c-.146-.011-.047-.15-.014-.224.336-.767.679-1.532,1.018-2.3.505-1.144,1.015-2.288,1.509-3.436a.5.5,0,0,1,.485-.335.863.863,0,0,1,1.032.645c.741,1.8,1.548,3.566,2.341,5.342.111.247.049.32-.2.3-.1-.005-.206,0-.31,0-.089,0-.163,0-.227,0-.371.006-.372.013-.618-.578-.336-.807-.247-.8-.852-.789-.091,0-.2,0-.324,0-.29,0-.58,0-.87,0-.31,0-.62,0-.931,0a.47.47,0,0,0-.5.324c-.105.271-.225.534-.341.8-.041.095-.075.231-.179.238-.207.014-.415.024-.622.024-.133,0-.264,0-.4-.014M57.606,59.553a38.678,38.678,0,0,1-4.595-2.835c-.063-.043-.164-.084-.12-.187.026-.066.092-.062.152-.059a.4.4,0,0,0,.042,0c.186,0,.373,0,.559,0v.011c1.995.061,3.991.107,5.985.185,1.085.042,2.169.112,3.255.116.395,0,.423.045.212.374a6.214,6.214,0,0,1-2.449,2.361,3.542,3.542,0,0,1-1.569.391,3.346,3.346,0,0,1-1.472-.356M36.43,56.769c1.9-.06,3.805-.108,5.707-.183,1.2-.049,2.4-.111,3.6-.114.089,0,.21-.038.246.074.031.093-.074.136-.141.181A43.122,43.122,0,0,1,41.581,59.4a3.655,3.655,0,0,1-4.456-.64,7.04,7.04,0,0,1-1.388-1.664c-.15-.248-.12-.3.167-.309.176-.005.351,0,.527,0v-.014M38.6,55.595a6.164,6.164,0,0,1-6.059-5.1,6.268,6.268,0,0,1,.109-2.584c.058-.245.152-.271.366-.154C35.5,49.11,37.985,50.48,40.439,51.9c1.8,1.044,3.591,2.1,5.328,3.245a1.982,1.982,0,0,1,.18.122c.083.069.252.1.214.23s-.145.106-.247.1a.781.781,0,0,0-.081-.005c-.642.006-1.284,0-1.926,0H42.076v0H40.029l-1.432,0M52.71,55.5c-.034-.127.119-.177.21-.237,1.68-1.1,3.4-2.139,5.131-3.15,2.279-1.329,4.584-2.612,6.9-3.881.308-.17.624-.327.925-.509.218-.131.306-.069.365.159a5.881,5.881,0,0,1,.095,2.615,5.98,5.98,0,0,1-4.074,4.754,7.765,7.765,0,0,1-2.542.327c-1.087.023-2.174.006-3.261.006v0c-1.148,0-2.3,0-3.446,0-.024,0-.05,0-.077,0s-.053.005-.078.005c-.067,0-.126-.017-.146-.094m-6.018-1.322c-.673-.343-1.348-.683-2.014-1.04a57.282,57.282,0,0,1-5.965-3.568,16.623,16.623,0,0,1-2.433-2.018A4.776,4.776,0,0,1,34.906,44a6.249,6.249,0,0,1,1.207-3.231A9.518,9.518,0,0,1,37.37,39.2c.257-.262.279-.26.513.039,1.394,1.777,2.693,3.622,3.926,5.513a75.323,75.323,0,0,1,4.7,8.284c.146.3.291.6.421.9.044.1.192.22.074.327a.11.11,0,0,1-.076.03c-.077,0-.164-.07-.236-.107m5.206.07c-.126-.11.008-.23.055-.333a73.905,73.905,0,0,1,4.231-7.766,79.572,79.572,0,0,1,4.73-6.8c.351-.45.358-.462.737-.039A8.877,8.877,0,0,1,63.812,43,3.76,3.76,0,0,1,64,44.283a5.062,5.062,0,0,1-1.817,3.7,36.657,36.657,0,0,1-6.571,4.386q-1.678.944-3.4,1.8c-.071.036-.151.109-.229.109a.122.122,0,0,1-.081-.032m-1.427-.887c-.146-.037-.11-.255-.12-.388-.068-.927-.164-1.853-.217-2.781-.094-1.651-.2-3.3-.172-4.959A40.056,40.056,0,0,1,50.6,38.3a13.788,13.788,0,0,1,1.112-3.511c.1-.2.221-.349.473-.318a5.675,5.675,0,0,1,3.558,1.422,4.291,4.291,0,0,1,1.431,3.448,10.116,10.116,0,0,1-.939,4.138A43.054,43.054,0,0,1,53,49.627c-.709,1.168-1.44,2.321-2.218,3.445-.076.11-.135.3-.273.3a.166.166,0,0,1-.042-.005m-2.289-.158c-.663-1.012-1.345-2.014-1.983-3.044a56.974,56.974,0,0,1-2.874-5.15,17.785,17.785,0,0,1-1.535-4.249,5.081,5.081,0,0,1,1.175-4.711,4.508,4.508,0,0,1,2.312-1.324c.382-.09.768-.17,1.153-.24.48-.088.6-.017.8.422a15.973,15.973,0,0,1,1.222,4.411,41.436,41.436,0,0,1,.444,6.57c.018,1.609-.1,3.322-.192,5.036-.039.7-.123,1.4-.186,2.1a.611.611,0,0,1-.02.123c-.027.084-.011.212-.122.231l-.022,0c-.091,0-.13-.1-.175-.174M31.064,14.821a20.614,20.614,0,0,0-5.442,1.287,10.916,10.916,0,0,0-5.344,4.411,14.909,14.909,0,0,0-1.849,4.811,28.175,28.175,0,0,0-.6,5.911q.008,14.555,0,29.11a33.15,33.15,0,0,0,.367,5.438,19.014,19.014,0,0,0,1.184,4.324A11.2,11.2,0,0,0,26.544,76.6a20.874,20.874,0,0,0,3.251.773,20.553,20.553,0,0,0,3.14.333c5.488.027,10.977.014,16.465.014v.008c4.764,0,9.527-.008,14.29.005a31.874,31.874,0,0,0,5.344-.366,18.817,18.817,0,0,0,4.491-1.263,10.983,10.983,0,0,0,5.9-6,18.211,18.211,0,0,0,1.187-4.356,30.347,30.347,0,0,0,.361-4.571q-.014-14.88,0-29.761a28.364,28.364,0,0,0-.766-6.792,14.728,14.728,0,0,0-1.2-3.255,10.907,10.907,0,0,0-5.64-5.184,18.938,18.938,0,0,0-4.69-1.245,28.376,28.376,0,0,0-4.015-.343q-9.724-.024-19.446-.015-3.931,0-7.86,0h-.613a48.885,48.885,0,0,0-5.68.236" transform="translate(-17.82 -14.585)" fill="none"/>
    </clipPath>
    <linearGradient id="linear-gradient" x1="-0.214" y1="1.218" x2="-0.202" y2="1.218" gradientUnits="objectBoundingBox">
      <stop offset="0" stop-color="#d4313e"/>
      <stop offset="0.438" stop-color="#d4313e"/>
      <stop offset="0.571" stop-color="#e2455c"/>
      <stop offset="1" stop-color="#e2455c"/>
    </linearGradient>
  </defs>
  <g id="Group_9303" data-name="Group 9303">
    <g id="Group_9414" data-name="Group 9414">
      <path id="Path_30820" data-name="Path 30820" d="M250.954,0H16.883c-.621,0-1.235.023-1.856.023a24.881,24.881,0,0,0-4,.4,12.366,12.366,0,0,0-3.8,1.341A13.327,13.327,0,0,0,4,4.343,13.659,13.659,0,0,0,1.626,7.859,14.927,14.927,0,0,0,.391,12.005a31.151,31.151,0,0,0-.37,4.343C.021,17,0,17.667,0,18.341V69.659c0,.675.021,1.341.021,2.016a31.151,31.151,0,0,0,.37,4.343,15.245,15.245,0,0,0,1.235,4.146A13.666,13.666,0,0,0,4,83.657a12.593,12.593,0,0,0,3.237,2.554,12.209,12.209,0,0,0,3.8,1.387,27.713,27.713,0,0,0,4,.379c.621,0,1.235.023,1.856.023H253.117c.6,0,1.235-.023,1.835-.023a27.163,27.163,0,0,0,4-.379A12.865,12.865,0,0,0,266,83.657a14.081,14.081,0,0,0,2.372-3.494,14.928,14.928,0,0,0,1.235-4.146,31.159,31.159,0,0,0,.37-4.343V69.659c.021-.781.021-1.569.021-2.372V20.713c0-.8,0-1.592-.021-2.372V16.348a31.159,31.159,0,0,0-.37-4.343,15.249,15.249,0,0,0-1.235-4.146A14.352,14.352,0,0,0,266,4.343a13.2,13.2,0,0,0-3.237-2.577A12.227,12.227,0,0,0,258.949.424a24.412,24.412,0,0,0-4-.4c-.6,0-1.235-.023-1.835-.023Z" fill="#1a1818"/>
      <path id="Path_30821" data-name="Path 30821" d="M124.334,65.764l-4.292-11.571-4.272,11.571ZM109.37,74.349l8.9-23.261h3.566l8.9,23.261h-3.286l-2.126-5.972h-10.5L112.7,74.349Zm27.408-2.613v9.25h-2.873V56.9h2.873v2.633a5.932,5.932,0,0,1,2.286-2.3,6.763,6.763,0,0,1,3.306-.765A6.28,6.28,0,0,1,147.549,59a10.324,10.324,0,0,1,2.006,6.643,10.387,10.387,0,0,1-2.006,6.643A6.3,6.3,0,0,1,142.37,74.8a6.91,6.91,0,0,1-3.306-.745,6.128,6.128,0,0,1-2.286-2.321m9.785-6.091a8.268,8.268,0,0,0-1.32-4.967,4.125,4.125,0,0,0-3.566-1.809,4.236,4.236,0,0,0-3.606,1.809,8.363,8.363,0,0,0-1.3,4.967,8.363,8.363,0,0,0,1.3,4.967,4.243,4.243,0,0,0,3.606,1.789,4.148,4.148,0,0,0,3.566-1.789,8.268,8.268,0,0,0,1.32-4.967M157.1,71.735v9.25h-2.893V56.9H157.1v2.633a5.978,5.978,0,0,1,2.266-2.3,6.806,6.806,0,0,1,3.326-.765A6.26,6.26,0,0,1,167.852,59a10.324,10.324,0,0,1,2.006,6.643,10.387,10.387,0,0,1-2.006,6.643,6.278,6.278,0,0,1-5.159,2.514,6.955,6.955,0,0,1-3.326-.745,6.131,6.131,0,0,1-2.266-2.321m9.765-6.091a8.268,8.268,0,0,0-1.32-4.967,4.125,4.125,0,0,0-3.566-1.809,4.236,4.236,0,0,0-3.606,1.809,8.461,8.461,0,0,0-1.28,4.967,8.462,8.462,0,0,0,1.28,4.967A4.243,4.243,0,0,0,161.98,72.4a4.148,4.148,0,0,0,3.566-1.789,8.268,8.268,0,0,0,1.32-4.967m23.669,5.386V64.786h-5.139V62.193h8.272v10a13.877,13.877,0,0,1-4.039,1.962,16.417,16.417,0,0,1-4.686.645q-5.479,0-8.565-3.185-3.069-3.182-3.073-8.878t3.073-8.878q3.089-3.2,8.565-3.205a15.932,15.932,0,0,1,4.313.572,13.51,13.51,0,0,1,3.8,1.649v3.358a12.587,12.587,0,0,0-3.719-2.241,11.546,11.546,0,0,0-4.133-.745q-4.269,0-6.439,2.374-2.13,2.394-2.126,7.109t2.126,7.089q2.169,2.374,6.439,2.374a15.048,15.048,0,0,0,2.993-.273,7.877,7.877,0,0,0,2.34-.891m19.476-5.466h-2.853q-3.489,0-4.826.8a2.887,2.887,0,0,0-1.34,2.713A3.09,3.09,0,0,0,202,71.516a3.978,3.978,0,0,0,2.739.884,4.8,4.8,0,0,0,3.839-1.689,6.7,6.7,0,0,0,1.44-4.5v-.645Zm2.873-1.177v9.961H210.01V71.7a6.359,6.359,0,0,1-2.439,2.361,7.92,7.92,0,0,1-3.606.745,5.984,5.984,0,0,1-4.272-1.5,5.348,5.348,0,0,1-1.573-4.05,5.263,5.263,0,0,1,1.966-4.442,9.744,9.744,0,0,1,5.906-1.5h4.019v-.273a3.76,3.76,0,0,0-1.3-3.066,5.581,5.581,0,0,0-3.659-1.077,12.128,12.128,0,0,0-2.913.352,11.448,11.448,0,0,0-2.739,1.077V57.677a18.742,18.742,0,0,1,3.073-.9,13.561,13.561,0,0,1,2.873-.313q3.8,0,5.672,1.962c1.246,1.323,1.866,3.3,1.866,5.965m5.926-14.277h2.873V74.349h-2.873Zm8.885,0h2.873V74.349h-2.873ZM251.455,64.9v1.416H238.244a6.639,6.639,0,0,0,1.773,4.515,6.216,6.216,0,0,0,4.472,1.529,13,13,0,0,0,3.193-.392,14.091,14.091,0,0,0,3.093-1.217v2.713a18.132,18.132,0,0,1-3.173,1,16.394,16.394,0,0,1-3.286.333,9.035,9.035,0,0,1-6.639-2.434,8.816,8.816,0,0,1-2.44-6.563,9.562,9.562,0,0,1,2.326-6.8,8.079,8.079,0,0,1,6.259-2.534,7.1,7.1,0,0,1,5.572,2.281,8.763,8.763,0,0,1,2.06,6.144m-13.131-.825h10.258a5.5,5.5,0,0,0-1.34-3.77,4.394,4.394,0,0,0-3.406-1.4,5.442,5.442,0,0,0-3.859,1.357,5.719,5.719,0,0,0-1.653,3.81m27.861-7.448.02,2.946a4.038,4.038,0,0,0-1.066-.412,5.244,5.244,0,0,0-1.24-.14,4.618,4.618,0,0,0-3.759,1.589,6.957,6.957,0,0,0-1.3,4.535v9.2h-2.873V56.9h2.873v2.713a5.849,5.849,0,0,1,2.366-2.361,7.324,7.324,0,0,1,3.526-.785,4.191,4.191,0,0,1,.667.06,6.361,6.361,0,0,1,.787.1m18,.273L276.5,75.958a10.462,10.462,0,0,1-2.379,4.083,4.742,4.742,0,0,1-3.093.944h-2.306V78.591h1.693a2.78,2.78,0,0,0,1.853-.572,7.029,7.029,0,0,0,1.44-2.653l.533-1.3L267.152,56.9H270.2l5.472,13.632L281.129,56.9Z" transform="translate(-26.285 -14.627)" fill="#fff"/>
      <path id="Path_30822" data-name="Path 30822" d="M114.185,35.466v-12h7.6v1.357H115.8v3.558h5.732v1.377H115.8V34.1h6.145v1.377h-7.758Zm13.591-6.4-3.739-5.6h1.753l2.993,4.462,2.993-4.462h1.753l-3.859,5.759,4.112,6.244h-1.753l-3.366-5.107-3.426,5.107h-1.753ZM139.587,24.8H137.54v4.5h2.046a2.558,2.558,0,0,0,1.773-.572,2.244,2.244,0,0,0,.613-1.689,2.19,2.19,0,0,0-.613-1.649,2.5,2.5,0,0,0-1.773-.592m-3.659,10.666v-12h3.659a4.566,4.566,0,0,1,3.073.9,3.424,3.424,0,0,1,1.026,2.673,3.4,3.4,0,0,1-1.026,2.693,4.555,4.555,0,0,1-3.073.9H137.54v4.834h-1.613Zm9.945,0v-12h1.633V34.089h5.866v1.377Zm13.5-10.9a3.454,3.454,0,0,0-2.833,1.317,5.731,5.731,0,0,0-1.026,3.6,5.755,5.755,0,0,0,1.026,3.6,3.454,3.454,0,0,0,2.833,1.317,3.343,3.343,0,0,0,2.793-1.317,5.705,5.705,0,0,0,1.046-3.6,5.626,5.626,0,0,0-1.046-3.6,3.326,3.326,0,0,0-2.793-1.317m0-1.317a5.176,5.176,0,0,1,4.039,1.689,6.523,6.523,0,0,1,1.513,4.535,6.544,6.544,0,0,1-1.513,4.535,5.176,5.176,0,0,1-4.039,1.689,5.262,5.262,0,0,1-4.079-1.689,6.523,6.523,0,0,1-1.513-4.535,6.544,6.544,0,0,1,1.513-4.535,5.239,5.239,0,0,1,4.079-1.689m13.8,6.577a2.4,2.4,0,0,1,1.026.765,8.172,8.172,0,0,1,1.006,1.589l1.653,3.278h-1.753l-1.533-3.086a4.442,4.442,0,0,0-1.16-1.589,2.683,2.683,0,0,0-1.533-.392h-1.773v5.067h-1.633v-12h3.679a4.7,4.7,0,0,1,3.093.864,3.215,3.215,0,0,1,1.006,2.593,3.194,3.194,0,0,1-.533,1.889,2.736,2.736,0,0,1-1.546,1.017M171.154,24.8h-2.046v4.263h2.046a2.527,2.527,0,0,0,1.773-.552,2.032,2.032,0,0,0,.613-1.589,2,2,0,0,0-.613-1.589,2.59,2.59,0,0,0-1.773-.532m7.8,10.666v-12h7.6v1.357h-5.965v3.558h5.732v1.377h-5.732V34.1h6.125v1.377h-7.758Zm15.67-12h1.633v12h-1.633Zm3.213,1.357V23.463h10.178v1.357h-4.272V35.466h-1.633V24.819Zm21.876-.253a3.4,3.4,0,0,0-2.813,1.317,5.653,5.653,0,0,0-1.046,3.6,5.677,5.677,0,0,0,1.046,3.6,3.663,3.663,0,0,0,5.626,0,5.784,5.784,0,0,0,1.026-3.6,5.7,5.7,0,0,0-1.026-3.6,3.38,3.38,0,0,0-2.813-1.317m0-1.317a5.2,5.2,0,0,1,4.059,1.689,6.523,6.523,0,0,1,1.513,4.535,6.544,6.544,0,0,1-1.513,4.535,5.722,5.722,0,0,1-8.118,0,6.523,6.523,0,0,1-1.513-4.535,6.544,6.544,0,0,1,1.513-4.535,5.177,5.177,0,0,1,4.059-1.689m8.112,12.216v-12h2.186L235.348,33.5V23.463h1.593v12h-2.206L229.4,25.424V35.466Z" transform="translate(-27.89 -5.629)" fill="#fff"/>
    </g>
  </g>
  <rect id="Rectangle_3311" data-name="Rectangle 3311" width="49" height="50" transform="translate(21.152 21.584)" fill="#fff"/>
  <g id="Group_9305" data-name="Group 9305" transform="translate(13.505 11.053)">
    <g id="Group_9304" data-name="Group 9304" clip-path="url(#clip-path)">
      <rect id="Rectangle_2942" data-name="Rectangle 2942" width="63.159" height="63.156" transform="translate(-0.001 0)" fill="url(#linear-gradient)"/>
    </g>
  </g>
</svg>
